<svg width="671" height="117" viewBox="0 0 671 117" fill="none" xmlns="http://www.w3.org/2000/svg">
<path d="M48.4062 11.7812C62.8438 11.7812 74.0234 16.2812 81.9453 25.2812C89.8672 34.2344 93.8281 46.7734 93.8281 62.8984C93.8281 73.5391 91.8125 82.9375 87.7812 91.0938C83.75 99.25 78.0781 105.602 70.7656 110.148C63.4531 114.648 55.0625 116.898 45.5938 116.898C31.2031 116.898 20.1641 112.492 12.4766 103.68C4.78906 94.8203 0.945312 81.9297 0.945312 65.0078C0.945312 54.0859 2.84375 44.6172 6.64062 36.6016C10.4844 28.5859 15.9922 22.4453 23.1641 18.1797C30.3359 13.9141 38.75 11.7812 48.4062 11.7812ZM47.7031 29.7812C40.2031 29.7812 34.6016 32.4531 30.8984 37.7969C27.2422 43.0938 25.4141 51.9297 25.4141 64.3047C25.4141 76.2109 27.0781 84.9531 30.4062 90.5312C33.7812 96.1094 39.0781 98.8984 46.2969 98.8984C53.7969 98.8984 59.4922 96.1328 63.3828 90.6016C67.3203 85.0703 69.2891 76.0703 69.2891 63.6016C69.2891 51.8828 67.5078 43.3281 63.9453 37.9375C60.4297 32.5 55.0156 29.7812 47.7031 29.7812ZM103.883 37.9375L137 37.2344V86.9453C137 90.9766 137.656 93.9062 138.969 95.7344C140.328 97.5156 142.602 98.4062 145.789 98.4062C148.555 98.4062 151.133 97.8438 153.523 96.7188C155.914 95.5469 157.93 94.3047 159.57 92.9922C161.211 91.6328 162.031 90.8594 162.031 90.6719V53.0547L150.5 49.4688V37.9375L183.617 37.2344V99.8828L195.148 102.766V114.016L164.773 115L163.367 104.945C163.367 105.133 162.031 106.234 159.359 108.25C156.734 110.266 153.547 112.141 149.797 113.875C146.047 115.562 142.156 116.406 138.125 116.406C130.906 116.406 125.305 114.133 121.32 109.586C117.383 105.039 115.414 98.7344 115.414 90.6719V53.0547L103.883 49.4688V37.9375ZM234.875 116.406C227.094 116.406 221.586 113.992 218.352 109.164C215.164 104.336 213.57 97.3984 213.57 88.3516V55.2344H200.211V41.2422L213.57 39.4141V19.5156L235.156 15.6484V39.4141H255.336V55.2344H235.156V86.9453C235.156 91.7266 235.672 95.0781 236.703 97C237.781 98.9219 239.82 99.8828 242.82 99.8828C244.555 99.8828 246.57 99.5078 248.867 98.7578C251.164 97.9609 252.945 97.2344 254.211 96.5781L259.344 107.547C251.281 113.5 243.125 116.453 234.875 116.406ZM309.828 103.469V115H263.633V103.469L275.164 99.8828V18.9531L263.633 16.0703V4.53906L296.891 3.41406V99.8828L309.828 103.469ZM324.523 13.4688C324.523 9.53125 325.742 6.39062 328.18 4.04688C330.617 1.70312 333.523 0.53125 336.898 0.53125C344.961 0.53125 348.992 4.84375 348.992 13.4688C348.992 17.5 347.75 20.7109 345.266 23.1016C342.828 25.4453 340.039 26.6172 336.898 26.6172C332.961 26.6172 329.914 25.4922 327.758 23.2422C325.602 20.9453 324.523 17.6875 324.523 13.4688ZM358.766 103.469V115H315.594V103.469L327.125 99.8828V53.0547L315.594 49.4688V37.9375L348.711 37.2344V99.8828L358.766 103.469ZM399.688 47.1484C399.688 46.9609 401.188 45.8828 404.188 43.9141C407.234 41.9453 410.703 40.1641 414.594 38.5703C418.484 36.9297 422.352 36.1094 426.195 36.1094C433.086 36.1094 438.453 38.3828 442.297 42.9297C446.141 47.4766 448.062 53.7344 448.062 61.7031V99.8828L458.188 103.469V115H418.531V103.469L426.477 99.8828V65.6406C426.477 62.2656 425.586 59.5 423.805 57.3438C422.023 55.1875 419.656 54.1094 416.703 54.1094C414.031 54.1094 411.547 54.7188 409.25 55.9375C407 57.1094 405.102 58.4219 403.555 59.875C402.055 61.2812 401.305 62.0781 401.305 62.2656V99.8828L409.18 103.469V115H368.188V103.469L379.719 99.8828V53.0547L368.188 49.4688V37.9375L398.703 37.2344L399.688 47.1484ZM489.195 80.8984C489.57 86.6641 491.305 91.1641 494.398 94.3984C497.539 97.5859 501.617 99.1797 506.633 99.1797C510.195 99.1797 513.758 98.6875 517.32 97.7031C520.93 96.6719 523.906 95.6406 526.25 94.6094C528.641 93.5312 530.164 92.7812 530.82 92.3594L537.008 104.312C537.008 104.5 535.32 105.695 531.945 107.898C528.617 110.055 524.516 112.023 519.641 113.805C514.812 115.539 509.656 116.406 504.172 116.406C491.984 116.406 482.703 113.031 476.328 106.281C469.953 99.5312 466.766 89.9688 466.766 77.5938C466.766 69.25 468.289 61.9375 471.336 55.6562C474.43 49.3281 478.859 44.4531 484.625 41.0312C490.391 37.5625 497.234 35.8281 505.156 35.8281C515.703 35.8281 523.789 38.8516 529.414 44.8984C535.039 50.9453 537.852 59.1953 537.852 69.6484C537.852 71.9453 537.734 74.1719 537.5 76.3281C537.266 78.4844 537.102 79.8438 537.008 80.4062L489.195 80.8984ZM503.75 53.0547C499.812 53.0547 496.602 54.3906 494.117 57.0625C491.633 59.6875 490.086 63.1562 489.477 67.4688H515.562C515.562 63.1562 514.602 59.6875 512.68 57.0625C510.758 54.3906 507.781 53.0547 503.75 53.0547ZM573.254 80.3008C576.793 77.5117 580.391 76.1172 584.047 76.1172C589.086 76.1172 592.859 77.793 595.367 81.1445C597.898 84.4727 599.164 89.043 599.164 94.8555C599.164 98.9805 598.402 102.613 596.879 105.754C595.379 108.895 593.141 111.344 590.164 113.102C587.188 114.836 583.59 115.703 579.371 115.703C577.027 115.703 574.871 115.574 572.902 115.316C570.934 115.059 569.363 114.789 568.191 114.508C567.043 114.203 566.328 114.004 566.047 113.91V65.3242L560.281 63.8828V59.9102L573.254 59.5586V80.3008ZM573.254 109.234C573.254 109.281 573.898 109.422 575.188 109.656C576.477 109.867 578.234 109.973 580.461 109.973C584.398 109.973 587.234 108.648 588.969 106C590.727 103.352 591.605 99.8711 591.605 95.5586C591.605 91.3398 590.867 88.0117 589.391 85.5742C587.938 83.1133 585.676 81.8828 582.605 81.8828C580.684 81.8828 579.02 82.2344 577.613 82.9375C576.23 83.6172 575.152 84.3555 574.379 85.1523C573.629 85.9492 573.254 86.418 573.254 86.5586V109.234ZM623.633 76.1172C628.953 76.1172 633.102 77.8398 636.078 81.2852C639.055 84.707 640.543 89.3477 640.543 95.207C640.543 99.2383 639.793 102.812 638.293 105.93C636.816 109.047 634.707 111.461 631.965 113.172C629.246 114.859 626.105 115.703 622.543 115.703C617.082 115.703 612.84 114.062 609.816 110.781C606.793 107.5 605.281 102.672 605.281 96.2969C605.281 92.2656 606.055 88.7266 607.602 85.6797C609.172 82.6094 611.34 80.2539 614.105 78.6133C616.871 76.9492 620.047 76.1172 623.633 76.1172ZM623.281 81.8828C619.719 81.8828 617.082 83.0547 615.371 85.3984C613.684 87.7188 612.84 91.2227 612.84 95.9102C612.84 105.262 616.203 109.949 622.93 109.973C626.445 109.973 629 108.777 630.594 106.387C632.188 103.973 632.984 100.363 632.984 95.5586C632.984 86.4414 629.75 81.8828 623.281 81.8828ZM669.758 82.5859H659.316V105.719C659.316 108.648 660.512 110.113 662.902 110.113C664.449 110.113 666.324 109.516 668.527 108.32L670.461 112.117C667.203 114.508 663.84 115.703 660.371 115.703C657.934 115.703 655.941 114.906 654.395 113.312C652.871 111.695 652.109 109.023 652.109 105.297V82.5859H644.902V77.9102L652.109 77.207V68.1367L659.316 66.6953V77.207H669.758V82.5859Z" fill="#3E3E3E"/>
</svg>
